<mxfile host="www.draw.io" modified="2020-03-12T07:13:06.040Z" agent="Mozilla/5.0 (Macintosh; Intel Mac OS X 10_13_6) AppleWebKit/537.36 (KHTML, like Gecko) Chrome/80.0.3987.132 Safari/537.36" etag="0omsxbu1LNgMicEgQz2R" version="12.8.4" type="github">
  <diagram id="d-cUwv-51pwWqw412W-w" name="Page-1">
    <mxGraphModel dx="1115" dy="623" grid="1" gridSize="10" guides="1" tooltips="1" connect="1" arrows="1" fold="1" page="1" pageScale="1" pageWidth="827" pageHeight="1169" math="0" shadow="0">
      <root>
        <mxCell id="0" />
        <mxCell id="1" parent="0" />
        <mxCell id="lAO-jHd-pBpZSLis7d_x-1" value="门店品牌" style="html=1;" vertex="1" parent="1">
          <mxGeometry x="40" y="40" width="110" height="50" as="geometry" />
        </mxCell>
        <mxCell id="lAO-jHd-pBpZSLis7d_x-2" value="门店市场" style="html=1;" vertex="1" parent="1">
          <mxGeometry x="190" y="40" width="110" height="50" as="geometry" />
        </mxCell>
        <mxCell id="lAO-jHd-pBpZSLis7d_x-3" value="门店运营区" style="html=1;" vertex="1" parent="1">
          <mxGeometry x="340" y="40" width="110" height="50" as="geometry" />
        </mxCell>
        <mxCell id="lAO-jHd-pBpZSLis7d_x-5" value="门店督导区" style="html=1;" vertex="1" parent="1">
          <mxGeometry x="490" y="40" width="110" height="50" as="geometry" />
        </mxCell>
        <mxCell id="lAO-jHd-pBpZSLis7d_x-6" value="门店" style="html=1;" vertex="1" parent="1">
          <mxGeometry x="260" y="160" width="110" height="50" as="geometry" />
        </mxCell>
        <mxCell id="lAO-jHd-pBpZSLis7d_x-7" value="门店组" style="html=1;" vertex="1" parent="1">
          <mxGeometry x="70" y="250" width="110" height="50" as="geometry" />
        </mxCell>
        <mxCell id="lAO-jHd-pBpZSLis7d_x-8" value="门店类型" style="html=1;" vertex="1" parent="1">
          <mxGeometry x="220" y="290" width="110" height="50" as="geometry" />
        </mxCell>
        <mxCell id="lAO-jHd-pBpZSLis7d_x-9" value="法人类型" style="html=1;" vertex="1" parent="1">
          <mxGeometry x="380" y="290" width="110" height="50" as="geometry" />
        </mxCell>
        <mxCell id="lAO-jHd-pBpZSLis7d_x-10" value="门店部门" style="html=1;" vertex="1" parent="1">
          <mxGeometry x="520" y="290" width="110" height="50" as="geometry" />
        </mxCell>
        <mxCell id="lAO-jHd-pBpZSLis7d_x-11" value="门店操作员" style="html=1;" vertex="1" parent="1">
          <mxGeometry x="430" y="400" width="110" height="50" as="geometry" />
        </mxCell>
        <mxCell id="lAO-jHd-pBpZSLis7d_x-12" value="门店角色" style="html=1;" vertex="1" parent="1">
          <mxGeometry x="580" y="400" width="110" height="50" as="geometry" />
        </mxCell>
        <mxCell id="lAO-jHd-pBpZSLis7d_x-16" value="" style="endArrow=open;endFill=1;endSize=12;html=1;entryX=1;entryY=0.5;entryDx=0;entryDy=0;exitX=0;exitY=0.5;exitDx=0;exitDy=0;" edge="1" parent="1" source="lAO-jHd-pBpZSLis7d_x-2" target="lAO-jHd-pBpZSLis7d_x-1">
          <mxGeometry width="160" relative="1" as="geometry">
            <mxPoint x="330" y="310" as="sourcePoint" />
            <mxPoint x="490" y="310" as="targetPoint" />
          </mxGeometry>
        </mxCell>
        <mxCell id="lAO-jHd-pBpZSLis7d_x-18" value="" style="endArrow=open;endFill=1;endSize=12;html=1;exitX=0;exitY=0.5;exitDx=0;exitDy=0;" edge="1" parent="1" source="lAO-jHd-pBpZSLis7d_x-3">
          <mxGeometry width="160" relative="1" as="geometry">
            <mxPoint x="200" y="75" as="sourcePoint" />
            <mxPoint x="300" y="65" as="targetPoint" />
          </mxGeometry>
        </mxCell>
        <mxCell id="lAO-jHd-pBpZSLis7d_x-19" value="" style="endArrow=open;endFill=1;endSize=12;html=1;exitX=0;exitY=0.5;exitDx=0;exitDy=0;" edge="1" parent="1" source="lAO-jHd-pBpZSLis7d_x-5">
          <mxGeometry width="160" relative="1" as="geometry">
            <mxPoint x="210" y="85" as="sourcePoint" />
            <mxPoint x="450" y="65" as="targetPoint" />
          </mxGeometry>
        </mxCell>
        <mxCell id="lAO-jHd-pBpZSLis7d_x-20" value="" style="endArrow=open;endFill=1;endSize=12;html=1;exitX=0.5;exitY=0;exitDx=0;exitDy=0;" edge="1" parent="1" source="lAO-jHd-pBpZSLis7d_x-6">
          <mxGeometry width="160" relative="1" as="geometry">
            <mxPoint x="220" y="95" as="sourcePoint" />
            <mxPoint x="540" y="95" as="targetPoint" />
          </mxGeometry>
        </mxCell>
        <mxCell id="lAO-jHd-pBpZSLis7d_x-21" value="" style="endArrow=open;endFill=1;endSize=12;html=1;entryX=0.5;entryY=0;entryDx=0;entryDy=0;exitX=0.5;exitY=1;exitDx=0;exitDy=0;" edge="1" parent="1" source="lAO-jHd-pBpZSLis7d_x-6" target="lAO-jHd-pBpZSLis7d_x-8">
          <mxGeometry width="160" relative="1" as="geometry">
            <mxPoint x="230" y="105" as="sourcePoint" />
            <mxPoint x="190" y="105" as="targetPoint" />
          </mxGeometry>
        </mxCell>
        <mxCell id="lAO-jHd-pBpZSLis7d_x-22" value="" style="endArrow=open;endFill=1;endSize=12;html=1;entryX=0.5;entryY=0;entryDx=0;entryDy=0;exitX=0.5;exitY=1;exitDx=0;exitDy=0;" edge="1" parent="1" source="lAO-jHd-pBpZSLis7d_x-6" target="lAO-jHd-pBpZSLis7d_x-9">
          <mxGeometry width="160" relative="1" as="geometry">
            <mxPoint x="320" y="220" as="sourcePoint" />
            <mxPoint x="200" y="115" as="targetPoint" />
          </mxGeometry>
        </mxCell>
        <mxCell id="lAO-jHd-pBpZSLis7d_x-23" value="1" style="endArrow=open;html=1;endSize=12;startArrow=diamondThin;startSize=14;startFill=0;edgeStyle=orthogonalEdgeStyle;align=left;verticalAlign=bottom;entryX=0;entryY=0.5;entryDx=0;entryDy=0;" edge="1" parent="1" source="lAO-jHd-pBpZSLis7d_x-7" target="lAO-jHd-pBpZSLis7d_x-6">
          <mxGeometry x="-1" y="3" relative="1" as="geometry">
            <mxPoint x="330" y="290" as="sourcePoint" />
            <mxPoint x="250" y="185" as="targetPoint" />
          </mxGeometry>
        </mxCell>
        <mxCell id="lAO-jHd-pBpZSLis7d_x-24" value="" style="endArrow=open;endFill=1;endSize=12;html=1;entryX=1;entryY=0.5;entryDx=0;entryDy=0;" edge="1" parent="1" target="lAO-jHd-pBpZSLis7d_x-6">
          <mxGeometry width="160" relative="1" as="geometry">
            <mxPoint x="550" y="290" as="sourcePoint" />
            <mxPoint x="550" y="105" as="targetPoint" />
          </mxGeometry>
        </mxCell>
        <mxCell id="lAO-jHd-pBpZSLis7d_x-25" value="" style="endArrow=open;endFill=1;endSize=12;html=1;entryX=0.5;entryY=1;entryDx=0;entryDy=0;exitX=0.5;exitY=0;exitDx=0;exitDy=0;" edge="1" parent="1" source="lAO-jHd-pBpZSLis7d_x-11" target="lAO-jHd-pBpZSLis7d_x-10">
          <mxGeometry width="160" relative="1" as="geometry">
            <mxPoint x="560" y="300" as="sourcePoint" />
            <mxPoint x="380" y="195" as="targetPoint" />
          </mxGeometry>
        </mxCell>
        <mxCell id="lAO-jHd-pBpZSLis7d_x-26" value="" style="endArrow=open;endFill=1;endSize=12;html=1;entryX=0;entryY=0.5;entryDx=0;entryDy=0;exitX=1;exitY=0.5;exitDx=0;exitDy=0;" edge="1" parent="1" source="lAO-jHd-pBpZSLis7d_x-11" target="lAO-jHd-pBpZSLis7d_x-12">
          <mxGeometry width="160" relative="1" as="geometry">
            <mxPoint x="495" y="410" as="sourcePoint" />
            <mxPoint x="585" y="350" as="targetPoint" />
          </mxGeometry>
        </mxCell>
      </root>
    </mxGraphModel>
  </diagram>
</mxfile>
